<svg width="79" height="24" viewBox="0 0 79 24" fill="none" xmlns="http://www.w3.org/2000/svg">
<path d="M73.3834 10.7234C73.3834 7.90723 71.0934 5.61702 68.2775 5.61702H57.555V24H51.9384V2.80851C51.9384 1.25617 53.1945 0 54.7467 0H68.2775C74.2004 0 79 4.8 79 10.7234V24H73.3834V10.7234Z" fill="#FF2FB6"/>
<path d="M49.1305 0H43.5139V24H49.1305V0Z" fill="#FF2FB6"/>
<path d="M32.7904 24C37.1611 24 40.7047 20.4562 40.7047 16.0851V7.91489C40.7047 3.54383 37.1611 0 32.7904 0H10.7225C4.7996 0 0 4.8 0 10.7234V24H5.61655V10.7234C5.61655 7.90723 7.90657 5.61702 10.7225 5.61702H32.7904C34.0567 5.61702 35.0881 6.64851 35.0881 7.91489V16.0851C35.0881 17.3515 34.0567 18.383 32.7904 18.383H22.5785C21.3122 18.383 20.2808 17.3515 20.2808 16.0851C20.2808 14.8187 21.3122 13.7872 22.5785 13.7872H32.5351V8.17021H22.5785C18.2078 8.17021 14.6643 11.714 14.6643 16.0851C14.6643 20.4562 18.2078 24 22.5785 24H32.7904Z" fill="#FF2FB6"/>
</svg>
