<?xml version="1.0" encoding="utf-8" ?><svg xmlns="http://www.w3.org/2000/svg" xmlns:xlink="http://www.w3.org/1999/xlink" width="1024" height="1024" viewBox="0 0 1024 1024"><path fill="#FEFEFE" d="M639.318 505.766C663.999 505.417 688.852 505.974 713.615 505.519C711.847 517.319 711.668 529.281 709.427 541.737C701.944 581.574 682.467 618.173 653.604 646.631C621.622 678.568 574.998 698.986 529.968 703.214C523.453 703.825 514.517 703.594 507.846 703.585L474.282 703.55L387.093 703.581C362.248 703.554 337.404 703.683 312.561 703.969C311.675 699.586 312.029 678.189 312.02 672.107L311.994 646.083C311.994 640.452 311.779 632.896 312.541 627.462C328.494 626.72 348.279 627.116 364.463 627.083L455.165 626.933L490.753 626.958C511.2 626.965 528.076 627.36 547.38 621.402C593.899 607.045 628.738 569.819 636.323 521.387C636.694 519.014 638.21 507.089 639.318 505.766Z"/><path fill="#FEFEFE" d="M526.876 328.252L654.354 328.499L689.703 328.484C695.786 328.484 705.595 328.184 711.261 329.14C712.212 331.922 711.444 397.532 710.955 404.417C693.361 404.798 674.653 404.494 656.987 404.507L514.823 404.514C477.085 404.799 445.37 419.003 419.061 445.782C401.306 464.987 391.041 489.249 386.666 514.813C386.091 518.17 385.637 521.505 384.832 524.819L384.698 525.353C375.735 524.834 364.929 525.083 355.854 525.148L312.14 525.443C312.085 524.709 312.026 523.986 312.015 523.249C311.293 474.435 333.386 423.488 366.912 388.706C398.239 355.955 439.98 335.117 484.985 329.766C499.05 328.145 512.759 328.51 526.876 328.252Z"/></svg>